<svg width="24" height="24" viewBox="0 0 24 24" fill="none" xmlns="http://www.w3.org/2000/svg">
<path d="M11.775 19.075L15.925 10.975C16.0083 10.8083 16 10.6457 15.9 10.487C15.8 10.3283 15.6583 10.2493 15.475 10.25H12.8V5.025C12.8 4.89167 12.7377 4.81233 12.613 4.787C12.4883 4.76167 12.3923 4.80767 12.325 4.925L8.175 13.025C8.09167 13.1917 8.1 13.3543 8.2 13.513C8.3 13.6717 8.44167 13.7507 8.625 13.75H11.3V18.975C11.3 19.1083 11.3627 19.1877 11.488 19.213C11.6133 19.2383 11.709 19.1923 11.775 19.075ZM12 22C10.6167 22 9.31667 21.7373 8.1 21.212C6.88334 20.6867 5.825 19.9743 4.925 19.075C4.025 18.1757 3.31267 17.1173 2.788 15.9C2.26333 14.6827 2.00067 13.3827 2 12C1.99933 10.6173 2.262 9.31733 2.788 8.1C3.314 6.88267 4.02633 5.82433 4.925 4.925C5.82367 4.02567 6.882 3.31333 8.1 2.788C9.318 2.26267 10.618 2 12 2C13.382 2 14.682 2.26267 15.9 2.788C17.118 3.31333 18.1763 4.02567 19.075 4.925C19.9737 5.82433 20.6863 6.88267 21.213 8.1C21.7397 9.31733 22.002 10.6173 22 12C21.998 13.3827 21.7353 14.6827 21.212 15.9C20.6887 17.1173 19.9763 18.1757 19.075 19.075C18.1737 19.9743 17.1153 20.687 15.9 21.213C14.6847 21.739 13.3847 22.0013 12 22Z" fill="#272727"/>
</svg>
