<?xml version="1.0" encoding="UTF-8"?>
<!DOCTYPE svg PUBLIC "-//W3C//DTD SVG 1.1//EN" "http://www.w3.org/Graphics/SVG/1.1/DTD/svg11.dtd">
<svg xmlns="http://www.w3.org/2000/svg" version="1.1" width="640px" height="640px" style="shape-rendering:geometricPrecision; text-rendering:geometricPrecision; image-rendering:optimizeQuality; fill-rule:evenodd; clip-rule:evenodd" xmlns:xlink="http://www.w3.org/1999/xlink">
<g><path style="opacity:1" fill="#fefefe" d="M -0.5,-0.5 C 212.833,-0.5 426.167,-0.5 639.5,-0.5C 639.5,212.833 639.5,426.167 639.5,639.5C 426.167,639.5 212.833,639.5 -0.5,639.5C -0.5,426.167 -0.5,212.833 -0.5,-0.5 Z"/></g>
<g><path style="opacity:1" fill="#bafedf" d="M 363.5,6.5 C 333.157,2.63666 302.823,2.63666 272.5,6.5C 273.263,5.73209 274.263,5.23209 275.5,5C 300.459,2.09406 325.459,1.76072 350.5,4C 355.076,4.27152 359.409,5.10485 363.5,6.5 Z"/></g>
<g><path style="opacity:1" fill="#86fec8" d="M 363.5,6.5 C 385.967,9.5599 407.967,14.7266 429.5,22C 511.961,55.4548 572.127,112.621 610,193.5C 621.875,220.998 629.375,249.665 632.5,279.5C 634.742,304.132 635.075,328.799 633.5,353.5C 618.624,463.268 562.958,545.268 466.5,599.5C 432.807,616.587 397.14,627.921 359.5,633.5C 334.526,635.666 309.526,635.999 284.5,634.5C 180.215,621.29 100.715,569.956 46,480.5C 27.1827,447.538 14.016,412.538 6.5,375.5C 2.77753,346.604 1.77753,317.604 3.5,288.5C 16.9405,178.2 71.9405,95.3663 168.5,40C 201.194,22.5018 235.861,11.3351 272.5,6.5C 302.823,2.63666 333.157,2.63666 363.5,6.5 Z"/></g>
<g><path style="opacity:1" fill="#fefefe" d="M 300.5,57.5 C 402.032,54.6814 481.532,94.6814 539,177.5C 584.919,252.114 592.919,330.781 563,413.5C 530.511,492.835 473.345,545.335 391.5,571C 289.994,596.596 202.16,572.763 128,499.5C 62.5089,425.696 42.1755,340.696 67,244.5C 97.1119,154.721 157.279,95.5544 247.5,67C 265.005,62.1112 282.672,58.9445 300.5,57.5 Z"/></g>
<g><path style="opacity:1" fill="#041ec1" d="M 306.5,250.5 C 305.957,250.56 305.624,250.893 305.5,251.5C 326.156,252.5 346.823,252.833 367.5,252.5C 371.912,253.07 375.078,255.403 377,259.5C 378.483,262.702 378.817,266.036 378,269.5C 346.625,320.417 315.125,371.25 283.5,422C 280.026,422.93 277.693,421.763 276.5,418.5C 287.352,379.421 298.352,340.421 309.5,301.5C 310.043,301.44 310.376,301.107 310.5,300.5C 289.844,299.5 269.177,299.167 248.5,299.5C 240.753,295.555 237.586,289.222 239,280.5C 257.36,230.078 275.694,179.745 294,129.5C 295.241,124.165 298.074,119.998 302.5,117C 318.167,116.333 333.833,116.333 349.5,117C 352.683,118.018 354.016,120.185 353.5,123.5C 353.182,126.956 352.348,130.289 351,133.5C 335.591,172.311 320.758,211.311 306.5,250.5 Z"/></g>
<g><path style="opacity:1" fill="#86fec8" d="M 166.5,280.5 C 164.526,285.182 163.359,290.182 163,295.5C 162.07,308.709 162.57,321.709 164.5,334.5C 175.502,397.684 211.168,440.518 271.5,463C 328.288,478.211 378.955,466.878 423.5,429C 468.641,383.235 482.974,329.235 466.5,267C 449.672,221.501 419.006,188.834 374.5,169C 363.715,158.441 361.549,146.275 368,132.5C 376.573,121.962 387.406,118.462 400.5,122C 462.509,149.993 503.009,196.493 522,261.5C 523.908,269.761 525.408,278.094 526.5,286.5C 527.369,302.816 527.703,319.15 527.5,335.5C 518.424,404.183 484.758,457.016 426.5,494C 369.824,526.001 310.491,532.001 248.5,512C 171.783,481.46 126.117,425.626 111.5,344.5C 109.314,325.536 108.98,306.536 110.5,287.5C 120.128,220.709 153.461,169.542 210.5,134C 219.12,128.903 228.12,124.57 237.5,121C 253.132,119.654 263.966,126.154 270,140.5C 270.765,149.89 268.432,158.557 263,166.5C 255.935,171.286 248.435,175.453 240.5,179C 201.309,202.342 176.643,236.175 166.5,280.5 Z"/></g>
<g><path style="opacity:1" fill="#4054d0" d="M 306.5,250.5 C 326.833,251.167 347.167,251.833 367.5,252.5C 346.823,252.833 326.156,252.5 305.5,251.5C 305.624,250.893 305.957,250.56 306.5,250.5 Z"/></g>
<g><path style="opacity:1" fill="#a3ade8" d="M 248.5,299.5 C 269.177,299.167 289.844,299.5 310.5,300.5C 310.376,301.107 310.043,301.44 309.5,301.5C 289.167,300.833 268.833,300.167 248.5,299.5 Z"/></g>
<g><path style="opacity:1" fill="#c3fee3" d="M 110.5,287.5 C 108.98,306.536 109.314,325.536 111.5,344.5C 110.055,340.079 109.222,335.412 109,330.5C 108.833,324.667 108.667,318.833 108.5,313C 108.318,304.28 108.984,295.78 110.5,287.5 Z"/></g>
<g><path style="opacity:1" fill="#ccfee7" d="M 166.5,280.5 C 163.325,298.391 162.658,316.391 164.5,334.5C 162.57,321.709 162.07,308.709 163,295.5C 163.359,290.182 164.526,285.182 166.5,280.5 Z"/></g>
<g><path style="opacity:1" fill="#bcfee0" d="M 632.5,279.5 C 633.486,283.997 634.32,288.664 635,293.5C 635.167,301.833 635.333,310.167 635.5,318.5C 635.702,330.375 635.035,342.041 633.5,353.5C 635.075,328.799 634.742,304.132 632.5,279.5 Z"/></g>
<g><path style="opacity:1" fill="#d3ffea" d="M 3.5,288.5 C 1.77753,317.604 2.77753,346.604 6.5,375.5C 3.95063,364.109 2.45063,352.443 2,340.5C 1.33333,325.833 1.33333,311.167 2,296.5C 2.1829,293.635 2.6829,290.969 3.5,288.5 Z"/></g>
<g><path style="opacity:1" fill="#c2fee2" d="M 526.5,286.5 C 527.309,288.292 527.809,290.292 528,292.5C 528.827,307.006 528.661,321.339 527.5,335.5C 527.703,319.15 527.369,302.816 526.5,286.5 Z"/></g>
<g><path style="opacity:1" fill="#cbfee7" d="M 359.5,633.5 C 354.38,634.797 349.046,635.631 343.5,636C 326.5,636.667 309.5,636.667 292.5,636C 289.635,635.817 286.969,635.317 284.5,634.5C 309.526,635.999 334.526,635.666 359.5,633.5 Z"/></g>
</svg>
