<?xml version="1.0" encoding="UTF-8"?>
<!DOCTYPE svg PUBLIC "-//W3C//DTD SVG 1.1//EN" "http://www.w3.org/Graphics/SVG/1.1/DTD/svg11.dtd">
<svg xmlns="http://www.w3.org/2000/svg" version="1.1" width="697px" height="184px" style="shape-rendering:geometricPrecision; text-rendering:geometricPrecision; image-rendering:optimizeQuality; fill-rule:evenodd; clip-rule:evenodd" xmlns:xlink="http://www.w3.org/1999/xlink">
<g><path style="opacity:0.616" fill="#b6d5ca" d="M 161.5,3.5 C 168.89,2.14779 176.223,2.48113 183.5,4.5C 176.183,3.88217 168.849,3.54884 161.5,3.5 Z"/></g>
<g><path style="opacity:1" fill="#89f9c8" d="M 161.5,3.5 C 168.849,3.54884 176.183,3.88217 183.5,4.5C 190.834,5.27734 197.834,7.27734 204.5,10.5C 205.086,10.2907 205.586,9.95735 206,9.5C 208.564,11.0039 211.064,12.6706 213.5,14.5C 214.29,15.4013 215.29,16.0679 216.5,16.5C 217.29,17.4013 218.29,18.0679 219.5,18.5C 220.795,19.4884 222.128,20.4884 223.5,21.5C 228.474,26.1387 233.474,30.8053 238.5,35.5C 239.842,38.4559 241.508,40.4559 243.5,41.5C 242.167,41.8333 242.167,42.1667 243.5,42.5C 243.427,44.0269 244.094,45.0269 245.5,45.5C 245.328,46.4916 245.662,47.1583 246.5,47.5C 246.328,48.4916 246.662,49.1583 247.5,49.5C 247.918,50.2216 248.584,50.7216 249.5,51C 248.366,52.016 248.699,52.6827 250.5,53C 249.226,53.9772 249.226,54.8106 250.5,55.5C 250.328,56.4916 250.662,57.1583 251.5,57.5C 252.637,61.5786 253.971,65.5786 255.5,69.5C 255.062,69.4346 254.728,69.6012 254.5,70C 256.046,74.0187 257.046,78.1854 257.5,82.5C 258.871,99.6124 256.204,115.612 249.5,130.5C 248.662,130.842 248.328,131.508 248.5,132.5C 247.167,132.833 247.167,133.167 248.5,133.5C 248.34,135.153 247.674,136.486 246.5,137.5C 246.167,136.167 245.833,136.167 245.5,137.5C 244.167,137.833 244.167,138.167 245.5,138.5C 245.672,139.492 245.338,140.158 244.5,140.5C 244.167,139.167 243.833,139.167 243.5,140.5C 242.662,140.842 242.328,141.508 242.5,142.5C 241.833,142.5 241.5,142.833 241.5,143.5C 240.167,143.833 240.167,144.167 241.5,144.5C 241.672,145.492 241.338,146.158 240.5,146.5C 240.167,145.167 239.833,145.167 239.5,146.5C 238.833,146.5 238.5,146.833 238.5,147.5C 237.833,147.5 237.5,147.833 237.5,148.5C 236.833,148.5 236.5,148.833 236.5,149.5C 235.167,149.833 235.167,150.167 236.5,150.5C 236.672,151.492 236.338,152.158 235.5,152.5C 235.167,151.167 234.833,151.167 234.5,152.5C 233.833,152.5 233.5,152.833 233.5,153.5C 232.833,153.5 232.5,153.833 232.5,154.5C 231.833,154.5 231.5,154.833 231.5,155.5C 230.833,155.5 230.5,155.833 230.5,156.5C 229.833,156.5 229.5,156.833 229.5,157.5C 228.167,157.833 228.167,158.167 229.5,158.5C 229.158,159.338 228.492,159.672 227.5,159.5C 227.167,158.167 226.833,158.167 226.5,159.5C 225.833,159.5 225.5,159.833 225.5,160.5C 224.833,160.5 224.5,160.833 224.5,161.5C 223.833,161.5 223.5,161.833 223.5,162.5C 222.167,162.833 222.167,163.167 223.5,163.5C 223.158,164.338 222.492,164.672 221.5,164.5C 221.167,163.167 220.833,163.167 220.5,164.5C 219.167,164.833 219.167,165.167 220.5,165.5C 220.158,166.338 219.492,166.672 218.5,166.5C 218.167,165.167 217.833,165.167 217.5,166.5C 216.833,167.167 216.167,167.833 215.5,168.5C 215.167,167.167 214.833,167.167 214.5,168.5C 188.363,182.491 161.363,184.158 133.5,173.5C 132.486,172.326 131.153,171.66 129.5,171.5C 129.158,170.662 128.492,170.328 127.5,170.5C 127.158,169.662 126.492,169.328 125.5,169.5C 125.167,168.167 124.833,168.167 124.5,169.5C 124.112,168.185 122.778,167.185 120.5,166.5C 120.027,165.094 119.027,164.427 117.5,164.5C 116.117,163.557 114.784,162.557 113.5,161.5C 112.193,158.614 110.193,157.448 107.5,158C 107.833,157.667 108.167,157.333 108.5,157C 102.505,150.921 97.505,144.755 93.5,138.5C 93.1667,137.167 92.8333,137.167 92.5,138.5C 93.0891,136.627 92.4224,134.96 90.5,133.5C 90.6716,132.508 90.3382,131.842 89.5,131.5C 89.6716,130.508 89.3382,129.842 88.5,129.5C 88.6716,128.508 88.3382,127.842 87.5,127.5C 77.8524,103.687 78.1857,79.0204 88.5,53.5C 89.3382,53.1583 89.6716,52.4916 89.5,51.5C 90.3382,51.1583 90.6716,50.4916 90.5,49.5C 91.9538,48.4797 92.2871,47.313 91.5,46C 94.2676,45.2924 95.1009,43.7924 94,41.5C 94.3333,41.8333 94.6667,42.1667 95,42.5C 101.128,34.0381 108.294,26.5381 116.5,20C 115.66,18.3335 116.16,18.1669 118,19.5C 120.326,17.9343 122.492,16.2676 124.5,14.5C 125.492,14.6716 126.158,14.3382 126.5,13.5C 127.222,13.0825 127.722,12.4158 128,11.5C 129.016,12.6341 129.683,12.3008 130,10.5C 130.333,10.8333 130.667,11.1667 131,11.5C 132.302,10.9152 133.469,10.2485 134.5,9.5C 143.18,6.0801 152.18,4.0801 161.5,3.5 Z M 179.5,19.5 C 185.788,20.5735 191.788,22.5735 197.5,25.5C 198.791,25.2627 199.791,25.596 200.5,26.5C 201.492,26.3284 202.158,26.6618 202.5,27.5C 203.492,27.3284 204.158,27.6618 204.5,28.5C 203.167,28.8333 203.167,29.1667 204.5,29.5C 204.842,30.3382 205.508,30.6716 206.5,30.5C 206.833,31.8333 207.167,31.8333 207.5,30.5C 208.167,31.1667 208.833,31.8333 209.5,32.5C 209.5,33.1667 209.833,33.5 210.5,33.5C 210.842,34.3382 211.508,34.6716 212.5,34.5C 213.167,35.8333 214.167,36.8333 215.5,37.5C 217.808,39.4707 220.142,41.4707 222.5,43.5C 223.167,43.5 223.5,43.8333 223.5,44.5C 223.372,46.1292 224.372,47.4625 226.5,48.5C 226.328,49.4916 226.662,50.1583 227.5,50.5C 227.5,51.1667 227.833,51.5 228.5,51.5C 228.328,52.4916 228.662,53.1583 229.5,53.5C 229.5,54.1667 229.833,54.5 230.5,54.5C 230.328,55.4916 230.662,56.1583 231.5,56.5C 231.328,57.4916 231.662,58.1583 232.5,58.5C 232.328,59.4916 232.662,60.1583 233.5,60.5C 234.167,61.5 234.833,62.5 235.5,63.5C 241.417,76.8573 242.917,91.1906 240,106.5C 238.909,112.629 237.075,117.962 234.5,122.5C 234.672,123.492 234.338,124.158 233.5,124.5C 233.672,125.492 233.338,126.158 232.5,126.5C 231.833,127.167 231.167,127.833 230.5,128.5C 229.167,128.833 229.167,129.167 230.5,129.5C 230.672,130.492 230.338,131.158 229.5,131.5C 228.922,130.453 228.256,130.62 227.5,132C 227.728,132.399 228.062,132.565 228.5,132.5C 228.672,133.492 228.338,134.158 227.5,134.5C 227.565,134.062 227.399,133.728 227,133.5C 225.833,134.667 224.667,135.833 223.5,137C 223.728,137.399 224.062,137.565 224.5,137.5C 224.672,138.492 224.338,139.158 223.5,139.5C 223.565,139.062 223.399,138.728 223,138.5C 220.5,141 218,143.5 215.5,146C 215.728,146.399 216.062,146.565 216.5,146.5C 216.158,147.338 215.492,147.672 214.5,147.5C 213.242,146.984 212.242,147.65 211.5,149.5C 210.508,149.328 209.842,149.662 209.5,150.5C 208.833,150.5 208.5,150.833 208.5,151.5C 207.833,152.167 207.167,152.833 206.5,153.5C 206.167,152.167 205.833,152.167 205.5,153.5C 204.778,153.918 204.278,154.584 204,155.5C 203.023,154.226 202.189,154.226 201.5,155.5C 200.5,156.167 199.5,156.833 198.5,157.5C 198.158,158.338 197.492,158.672 196.5,158.5C 177.345,166.668 158.345,166.334 139.5,157.5C 138.508,157.672 137.842,157.338 137.5,156.5C 136.508,156.672 135.842,156.338 135.5,155.5C 134.508,155.672 133.842,155.338 133.5,154.5C 132.508,154.672 131.842,154.338 131.5,153.5C 132.833,153.167 132.833,152.833 131.5,152.5C 131.158,151.662 130.492,151.328 129.5,151.5C 128.994,149.895 128.327,149.561 127.5,150.5C 126.508,150.672 125.842,150.338 125.5,149.5C 125.938,149.565 126.272,149.399 126.5,149C 125.667,148.167 124.833,147.333 124,146.5C 123.601,146.728 123.435,147.062 123.5,147.5C 122.508,147.672 121.842,147.338 121.5,146.5C 121.938,146.565 122.272,146.399 122.5,146C 120,143.5 117.5,141 115,138.5C 114.601,138.728 114.435,139.062 114.5,139.5C 113.662,139.158 113.328,138.492 113.5,137.5C 113.938,137.565 114.272,137.399 114.5,137C 113.667,136.167 112.833,135.333 112,134.5C 111.601,134.728 111.435,135.062 111.5,135.5C 110.662,135.158 110.328,134.492 110.5,133.5C 111.439,132.673 111.105,132.006 109.5,131.5C 109.672,130.508 109.338,129.842 108.5,129.5C 108.167,128.167 107.833,128.167 107.5,129.5C 106.662,129.158 106.328,128.492 106.5,127.5C 105.662,127.158 105.328,126.492 105.5,125.5C 106.833,125.167 106.833,124.833 105.5,124.5C 103.75,123.341 102.75,121.674 102.5,119.5C 96.6317,106.478 95.1317,92.4775 98,77.5C 99.1072,71.0033 101.274,65.0033 104.5,59.5C 104.328,58.5084 104.662,57.8417 105.5,57.5C 105.328,56.5084 105.662,55.8417 106.5,55.5C 106.328,54.5084 106.662,53.8417 107.5,53.5C 108.078,54.547 108.744,54.3803 109.5,53C 109.272,52.6012 108.938,52.4346 108.5,52.5C 108.328,51.5084 108.662,50.8417 109.5,50.5C 110.327,51.4387 110.994,51.1054 111.5,49.5C 112.338,49.1583 112.672,48.4916 112.5,47.5C 117.53,43.4976 121.53,39.1643 124.5,34.5C 124.842,33.6618 125.508,33.3284 126.5,33.5C 127.327,34.4387 127.994,34.1054 128.5,32.5C 128.888,31.1846 130.222,30.1846 132.5,29.5C 132.833,30.8333 133.167,30.8333 133.5,29.5C 134.492,29.6716 135.158,29.3382 135.5,28.5C 136.492,28.6716 137.158,28.3382 137.5,27.5C 138.222,26.4489 139.222,25.7822 140.5,25.5C 142.261,24.6873 143.928,23.6873 145.5,22.5C 156.67,19.9195 168.003,18.9195 179.5,19.5 Z"/></g>
<g><path style="opacity:0.004" fill="#000000" d="M 134.5,9.5 C 133.833,8.16667 133.833,8.16667 134.5,9.5 Z"/></g>
<g><path style="opacity:0.008" fill="#000000" d="M 126.5,13.5 C 125.833,12.1667 125.833,12.1667 126.5,13.5 Z"/></g>
<g><path style="opacity:0.004" fill="#000000" d="M 124.5,14.5 C 123.833,13.1667 123.833,13.1667 124.5,14.5 Z"/></g>
<g><path style="opacity:0.004" fill="#000000" d="M 213.5,13.5 C 214.833,14.1667 214.833,14.1667 213.5,13.5 Z"/></g>
<g><path style="opacity:0.004" fill="#000000" d="M 216.5,15.5 C 217.833,16.1667 217.833,16.1667 216.5,15.5 Z"/></g>
<g><path style="opacity:0.004" fill="#000000" d="M 219.5,17.5 C 220.833,18.1667 220.833,18.1667 219.5,17.5 Z"/></g>
<g><path style="opacity:0.686" fill="#a3d5c6" d="M 179.5,19.5 C 168.003,18.9195 156.67,19.9195 145.5,22.5C 149.205,20.7356 153.205,19.569 157.5,19C 165.012,18.1782 172.345,18.3448 179.5,19.5 Z"/></g>
<g><path style="opacity:0.008" fill="#000000" d="M 223.5,20.5 C 224.833,21.1667 224.833,21.1667 223.5,20.5 Z"/></g>
<g><path style="opacity:0.004" fill="#000000" d="M 238.5,34.5 C 239.833,35.1667 239.833,35.1667 238.5,34.5 Z"/></g>
<g><path style="opacity:0.502" fill="#87aba0" d="M 150.5,36.5 C 146.752,37.2074 143.086,38.2074 139.5,39.5C 139.5,38.8333 139.167,38.5 138.5,38.5C 138.842,37.6618 139.508,37.3284 140.5,37.5C 140.842,36.6618 141.508,36.3284 142.5,36.5C 144.969,35.6428 147.635,35.6428 150.5,36.5 Z"/></g>
<g><path style="opacity:1" fill="#0e21c3" d="M 178.5,35.5 C 178.804,36.1499 179.137,36.8165 179.5,37.5C 178.1,40.0354 177.1,42.702 176.5,45.5C 173.459,52.2804 170.792,59.2804 168.5,66.5C 167.609,68.2905 166.609,70.1239 165.5,72C 171.914,72.2068 178.247,72.7068 184.5,73.5C 184.5,74.1667 184.833,74.5 185.5,74.5C 186.562,76.0992 186.562,77.7659 185.5,79.5C 184.833,79.5 184.5,79.8333 184.5,80.5C 183.662,80.8417 183.328,81.5084 183.5,82.5C 182.662,82.8417 182.328,83.5084 182.5,84.5C 181.833,84.5 181.5,84.8333 181.5,85.5C 180.662,85.8417 180.328,86.5084 180.5,87.5C 179.167,87.8333 179.167,88.1667 180.5,88.5C 179.833,89.1667 179.167,89.8333 178.5,90.5C 177.167,90.8333 177.167,91.1667 178.5,91.5C 178.672,92.4916 178.338,93.1583 177.5,93.5C 177.167,92.1667 176.833,92.1667 176.5,93.5C 175.662,93.8417 175.328,94.5084 175.5,95.5C 174.833,95.5 174.5,95.8333 174.5,96.5C 173.662,96.8417 173.328,97.5084 173.5,98.5C 172.662,98.8417 172.328,99.5084 172.5,100.5C 171.833,100.5 171.5,100.833 171.5,101.5C 170.662,101.842 170.328,102.508 170.5,103.5C 169.167,103.833 169.167,104.167 170.5,104.5C 169.833,105.167 169.167,105.833 168.5,106.5C 167.662,106.842 167.328,107.508 167.5,108.5C 166.833,108.5 166.5,108.833 166.5,109.5C 165.662,109.842 165.328,110.508 165.5,111.5C 164.167,111.833 164.167,112.167 165.5,112.5C 164.833,113.167 164.167,113.833 163.5,114.5C 162.167,114.833 162.167,115.167 163.5,115.5C 163.672,116.492 163.338,117.158 162.5,117.5C 162.167,116.167 161.833,116.167 161.5,117.5C 160.662,117.842 160.328,118.508 160.5,119.5C 159.833,119.5 159.5,119.833 159.5,120.5C 158.833,120.5 158.167,120.5 157.5,120.5C 159.492,109.312 162.492,98.1454 166.5,87C 160.509,86.5005 154.509,86.3338 148.5,86.5C 147.994,84.8946 147.327,84.5613 146.5,85.5C 145.957,85.44 145.624,85.1067 145.5,84.5C 149.504,72.8209 153.504,61.1542 157.5,49.5C 159.342,45.3205 161.008,40.9871 162.5,36.5C 163.167,36.5 163.5,36.1667 163.5,35.5C 168.5,34.1667 173.5,34.1667 178.5,35.5 Z"/></g>
<g><path style="opacity:1" fill="#8af9c9" d="M 195.5,37.5 C 195.842,38.3382 196.508,38.6716 197.5,38.5C 197.842,39.3382 198.508,39.6716 199.5,39.5C 199.833,40.8333 200.167,40.8333 200.5,39.5C 201.492,39.3284 202.158,39.6618 202.5,40.5C 201.561,41.3274 201.895,41.9941 203.5,42.5C 203.842,43.3382 204.508,43.6716 205.5,43.5C 208.5,47.1667 211.833,50.5 215.5,53.5C 216.167,54.1667 216.833,54.8333 217.5,55.5C 216.561,56.3274 216.895,56.9941 218.5,57.5C 218.328,58.4916 218.662,59.1583 219.5,59.5C 220.167,60.1667 220.833,60.8333 221.5,61.5C 220.167,61.8333 220.167,62.1667 221.5,62.5C 221.328,63.4916 221.662,64.1583 222.5,64.5C 222.796,66.403 223.463,68.0697 224.5,69.5C 229.706,83.5148 229.706,97.5148 224.5,111.5C 222.78,112.751 222.447,114.251 223.5,116C 222.662,117.155 221.662,118.322 220.5,119.5C 219.662,119.842 219.328,120.508 219.5,121.5C 218.167,121.833 218.167,122.167 219.5,122.5C 219.672,123.492 219.338,124.158 218.5,124.5C 218.565,124.062 218.399,123.728 218,123.5C 217.167,124.333 216.333,125.167 215.5,126C 215.728,126.399 216.062,126.565 216.5,126.5C 216.672,127.492 216.338,128.158 215.5,128.5C 215.565,128.062 215.399,127.728 215,127.5C 212.167,130.333 209.333,133.167 206.5,136C 206.728,136.399 207.062,136.565 207.5,136.5C 207.158,137.338 206.492,137.672 205.5,137.5C 205.565,137.062 205.399,136.728 205,136.5C 204.167,137.333 203.333,138.167 202.5,139C 202.728,139.399 203.062,139.565 203.5,139.5C 203.158,140.338 202.492,140.672 201.5,140.5C 201.167,139.167 200.833,139.167 200.5,140.5C 198.222,141.185 196.888,142.185 196.5,143.5C 191.823,144.766 186.823,146.266 181.5,148C 169.133,150.438 157.133,149.271 145.5,144.5C 144.811,143.226 143.977,143.226 143,144.5C 141.845,143.662 140.678,142.662 139.5,141.5C 139.158,140.662 138.492,140.328 137.5,140.5C 137.5,139.833 137.167,139.5 136.5,139.5C 136.158,138.662 135.492,138.328 134.5,138.5C 133.758,136.65 132.758,135.984 131.5,136.5C 130.833,135.833 130.167,135.167 129.5,134.5C 128.167,132.5 126.5,130.833 124.5,129.5C 123.833,128.833 123.167,128.167 122.5,127.5C 123.016,126.242 122.35,125.242 120.5,124.5C 120.672,123.508 120.338,122.842 119.5,122.5C 119.167,121.167 118.833,121.167 118.5,122.5C 117.662,122.158 117.328,121.492 117.5,120.5C 118.833,120.167 118.833,119.833 117.5,119.5C 117.672,118.508 117.338,117.842 116.5,117.5C 116.672,116.508 116.338,115.842 115.5,115.5C 115.672,114.508 115.338,113.842 114.5,113.5C 113.629,110.888 112.963,108.221 112.5,105.5C 111.66,96.8616 111.327,88.195 111.5,79.5C 112.019,74.2778 113.352,69.2778 115.5,64.5C 116.338,64.1583 116.672,63.4916 116.5,62.5C 117.338,62.1583 117.672,61.4916 117.5,60.5C 118.167,60.5 118.5,60.1667 118.5,59.5C 119.338,59.1583 119.672,58.4916 119.5,57.5C 120.167,57.5 120.5,57.1667 120.5,56.5C 121.338,56.1583 121.672,55.4916 121.5,54.5C 123.5,53.1667 125.167,51.5 126.5,49.5C 127.167,49.5 127.5,49.1667 127.5,48.5C 128.167,48.5 128.5,48.1667 128.5,47.5C 129.167,47.5 129.5,47.1667 129.5,46.5C 131.167,45.5 132.5,44.1667 133.5,42.5C 134.492,42.6716 135.158,42.3382 135.5,41.5C 136.167,41.5 136.5,41.1667 136.5,40.5C 137.492,40.6716 138.158,40.3382 138.5,39.5C 138.833,39.5 139.167,39.5 139.5,39.5C 143.086,38.2074 146.752,37.2074 150.5,36.5C 151.167,36.5 151.833,36.5 152.5,36.5C 152.833,37.5 153.5,38.1667 154.5,38.5C 154.918,39.2216 155.584,39.7216 156.5,40C 156.643,42.4353 156.31,44.9353 155.5,47.5C 155.167,47.5 154.833,47.5 154.5,47.5C 153.167,48.1667 152.167,49.1667 151.5,50.5C 151.082,51.2216 150.416,51.7216 149.5,52C 150.712,53.1068 150.379,53.6068 148.5,53.5C 148.167,52.1667 147.833,52.1667 147.5,53.5C 146.508,53.3284 145.842,53.6618 145.5,54.5C 143.895,55.0059 143.561,55.6726 144.5,56.5C 144.158,57.3382 143.492,57.6716 142.5,57.5C 142.565,57.0618 142.399,56.7284 142,56.5C 139.5,59 137,61.5 134.5,64C 134.728,64.3988 135.062,64.5654 135.5,64.5C 135.672,65.4916 135.338,66.1583 134.5,66.5C 134.167,65.1667 133.833,65.1667 133.5,66.5C 132.662,66.8417 132.328,67.5084 132.5,68.5C 131.167,68.8333 131.167,69.1667 132.5,69.5C 128.062,74.9715 126.062,81.8049 126.5,90C 126.062,98.1951 128.062,105.028 132.5,110.5C 131.167,110.833 131.167,111.167 132.5,111.5C 132.328,112.492 132.662,113.158 133.5,113.5C 133.833,114.833 134.167,114.833 134.5,113.5C 135.338,113.842 135.672,114.508 135.5,115.5C 137.121,118.828 139.787,121.828 143.5,124.5C 143.842,125.338 144.508,125.672 145.5,125.5C 145.5,126.167 145.833,126.5 146.5,126.5C 146.842,127.338 147.508,127.672 148.5,127.5C 148.842,128.338 149.508,128.672 150.5,128.5C 156.12,131.776 162.286,133.11 169,132.5C 175.714,133.11 181.88,131.776 187.5,128.5C 189.153,128.34 190.486,127.674 191.5,126.5C 192.167,126.5 192.5,126.167 192.5,125.5C 193.492,125.672 194.158,125.338 194.5,124.5C 198.213,121.828 200.879,118.828 202.5,115.5C 203.167,114.833 203.833,114.167 204.5,113.5C 205.833,113.167 205.833,112.833 204.5,112.5C 205.167,111.833 205.833,111.167 206.5,110.5C 207.537,109.07 208.204,107.403 208.5,105.5C 210.866,100.898 211.866,95.898 211.5,90.5C 211.866,85.102 210.866,80.102 208.5,75.5C 208.737,74.209 208.404,73.209 207.5,72.5C 207.672,71.5084 207.338,70.8417 206.5,70.5C 205.833,69.8333 205.167,69.1667 204.5,68.5C 203.662,68.1583 203.328,67.4916 203.5,66.5C 204.016,65.2418 203.35,64.2418 201.5,63.5C 201.607,61.6214 201.107,61.2881 200,62.5C 199.283,61.9558 198.783,61.2891 198.5,60.5C 197.272,59.6935 196.272,58.6935 195.5,57.5C 195.167,56.5 194.5,55.8333 193.5,55.5C 193.158,54.6618 192.492,54.3284 191.5,54.5C 191.5,53.8333 191.167,53.5 190.5,53.5C 190.158,52.6618 189.492,52.3284 188.5,52.5C 187.329,51.6554 185.995,50.9887 184.5,50.5C 184.167,49.5 183.5,48.8333 182.5,48.5C 181.442,44.5226 181.442,40.8559 182.5,37.5C 182.833,38.8333 183.167,38.8333 183.5,37.5C 184.492,37.6716 185.158,37.3382 185.5,36.5C 188.97,35.1972 192.303,35.5306 195.5,37.5 Z"/></g>
<g><path style="opacity:0.843" fill="#8da8a3" d="M 215.5,35.5 C 219.274,36.9382 221.607,39.6049 222.5,43.5C 220.142,41.4707 217.808,39.4707 215.5,37.5C 216.506,37.0623 216.506,36.3957 215.5,35.5 Z"/></g>
<g><path style="opacity:0.004" fill="#000000" d="M 243.5,41.5 C 244.833,42.1667 244.833,42.1667 243.5,41.5 Z"/></g>
<g><path style="opacity:0.004" fill="#000000" d="M 245.5,44.5 C 246.833,45.1667 246.833,45.1667 245.5,44.5 Z"/></g>
<g><path style="opacity:0.004" fill="#000000" d="M 129.5,45.5 C 129.5,45.8333 129.5,46.1667 129.5,46.5C 128.833,46.5 128.5,46.8333 128.5,47.5C 128.167,47.5 127.833,47.5 127.5,47.5C 127.5,46.1667 128.167,45.5 129.5,45.5 Z"/></g>
<g><path style="opacity:0.993" fill="#1832c7" d="M 7.5,45.5 C 23.2024,45.1376 38.8691,45.6376 54.5,47C 74.0561,53.5994 81.5561,67.0994 77,87.5C 73.3973,99.8824 65.2306,107.049 52.5,109C 44.1733,109.5 35.84,109.666 27.5,109.5C 27.5,119.5 27.5,129.5 27.5,139.5C 20.8333,139.5 14.1667,139.5 7.5,139.5C 7.5,108.167 7.5,76.8333 7.5,45.5 Z M 27.5,62.5 C 35.8297,61.7515 43.8297,62.9182 51.5,66C 55.3019,69.0637 56.9686,73.0637 56.5,78C 56.3757,87.1273 51.7091,92.1273 42.5,93C 37.5111,93.4993 32.5111,93.6659 27.5,93.5C 27.5,83.1667 27.5,72.8333 27.5,62.5 Z"/></g>
<g><path style="opacity:0.008" fill="#000000" d="M 246.5,46.5 C 247.833,47.1667 247.833,47.1667 246.5,46.5 Z"/></g>
<g><path style="opacity:0.996" fill="#1831c6" d="M 496.5,45.5 C 504.86,45.1688 513.193,45.5021 521.5,46.5C 529.724,67.2807 538.224,87.9474 547,108.5C 555.998,87.6643 564.498,66.6643 572.5,45.5C 580.833,45.5 589.167,45.5 597.5,45.5C 597.5,76.8333 597.5,108.167 597.5,139.5C 590.833,139.5 584.167,139.5 577.5,139.5C 577.667,120.164 577.5,100.83 577,81.5C 569.203,100.754 561.703,120.087 554.5,139.5C 549.5,139.5 544.5,139.5 539.5,139.5C 532.297,120.087 524.797,100.754 517,81.5C 516.5,100.83 516.333,120.164 516.5,139.5C 509.833,139.5 503.167,139.5 496.5,139.5C 496.5,108.167 496.5,76.8333 496.5,45.5 Z"/></g>
<g><path style="opacity:0.004" fill="#000000" d="M 127.5,47.5 C 127.5,47.8333 127.5,48.1667 127.5,48.5C 126.833,48.5 126.5,48.8333 126.5,49.5C 126.167,49.5 125.833,49.5 125.5,49.5C 125.5,48.1667 126.167,47.5 127.5,47.5 Z"/></g>
<g><path style="opacity:0.004" fill="#000000" d="M 90.5,49.5 C 89.8333,48.1667 89.8333,48.1667 90.5,49.5 Z"/></g>
<g><path style="opacity:0.004" fill="#000000" d="M 247.5,48.5 C 248.833,49.1667 248.833,49.1667 247.5,48.5 Z"/></g>
<g><path style="opacity:0.051" fill="#75948d" d="M 154.5,47.5 C 154.5,48.1667 154.833,48.5 155.5,48.5C 155.672,49.4916 155.338,50.1583 154.5,50.5C 153.652,51.625 152.652,51.625 151.5,50.5C 152.167,49.1667 153.167,48.1667 154.5,47.5 Z"/></g>
<g><path style="opacity:0.004" fill="#000000" d="M 89.5,51.5 C 88.8333,50.1667 88.8333,50.1667 89.5,51.5 Z"/></g>
<g><path style="opacity:0.004" fill="#000000" d="M 88.5,53.5 C 87.8333,52.1667 87.8333,52.1667 88.5,53.5 Z"/></g>
<g><path style="opacity:0.004" fill="#000000" d="M 250.5,54.5 C 251.833,55.1667 251.833,55.1667 250.5,54.5 Z"/></g>
<g><path style="opacity:0.004" fill="#000000" d="M 251.5,56.5 C 252.833,57.1667 252.833,57.1667 251.5,56.5 Z"/></g>
<g><path style="opacity:0.99" fill="#1831c6" d="M 390.5,68.5 C 419.16,67.16 432.827,80.8267 431.5,109.5C 415.833,109.5 400.167,109.5 384.5,109.5C 385.184,122.866 392.184,128.033 405.5,125C 408.973,123.36 411.64,120.86 413.5,117.5C 419.622,118.002 425.622,118.835 431.5,120C 424.534,136.825 411.867,143.825 393.5,141C 377.578,139.078 368.078,130.245 365,114.5C 362.05,99.7899 365.55,86.9566 375.5,76C 380.045,72.3939 385.045,69.8939 390.5,68.5 Z M 395.5,83.5 C 405.454,83.1305 411.12,87.7971 412.5,97.5C 403.167,97.5 393.833,97.5 384.5,97.5C 385.227,90.4479 388.894,85.7812 395.5,83.5 Z"/></g>
<g><path style="opacity:0.995" fill="#1831c6" d="M 474.5,68.5 C 478.5,68.5 482.5,68.5 486.5,68.5C 486.5,74.5 486.5,80.5 486.5,86.5C 480.156,84.6655 474.156,85.4988 468.5,89C 467.213,90.4095 466.046,91.9095 465,93.5C 463.548,108.762 463.048,124.095 463.5,139.5C 456.833,139.5 450.167,139.5 443.5,139.5C 443.5,116.167 443.5,92.8333 443.5,69.5C 450.167,69.5 456.833,69.5 463.5,69.5C 463.335,72.5184 463.502,75.5184 464,78.5C 466.081,73.5837 469.581,70.2504 474.5,68.5 Z"/></g>
<g><path style="opacity:0.99" fill="#1831c6" d="M 636.5,68.5 C 665.16,67.16 678.827,80.8267 677.5,109.5C 661.833,109.5 646.167,109.5 630.5,109.5C 631.184,122.866 638.184,128.033 651.5,125C 654.973,123.36 657.64,120.86 659.5,117.5C 665.622,118.002 671.622,118.835 677.5,120C 670.534,136.825 657.867,143.825 639.5,141C 623.578,139.078 614.078,130.245 611,114.5C 608.05,99.7899 611.55,86.9566 621.5,76C 626.045,72.3939 631.045,69.8939 636.5,68.5 Z M 641.5,83.5 C 651.454,83.1305 657.12,87.7971 658.5,97.5C 649.167,97.5 639.833,97.5 630.5,97.5C 631.227,90.4479 634.894,85.7812 641.5,83.5 Z"/></g>
<g><path style="opacity:0.987" fill="#1931c6" d="M 255.5,69.5 C 262.167,69.5 268.833,69.5 275.5,69.5C 278.427,84.6369 281.927,99.6369 286,114.5C 289.662,99.5206 293.162,84.5206 296.5,69.5C 303.5,69.5 310.5,69.5 317.5,69.5C 320.838,84.5206 324.338,99.5206 328,114.5C 331.971,99.6152 335.471,84.6152 338.5,69.5C 345.508,69.3337 352.508,69.5004 359.5,70C 352.779,93.0477 346.446,116.214 340.5,139.5C 333.167,139.5 325.833,139.5 318.5,139.5C 314.827,125.142 310.994,110.809 307,96.5C 302.649,110.716 298.816,125.049 295.5,139.5C 288.137,139.831 280.803,139.497 273.5,138.5C 268.143,119.721 262.809,101.055 257.5,82.5C 257.046,78.1854 256.046,74.0187 254.5,70C 254.728,69.6012 255.062,69.4346 255.5,69.5 Z"/></g>
<g><path style="opacity:0.973" fill="#b7eddf" d="M 111.5,79.5 C 111.327,88.195 111.66,96.8616 112.5,105.5C 109.503,96.8892 109.17,88.2225 111.5,79.5 Z"/></g>
<g><path style="opacity:0.004" fill="#000000" d="M 87.5,127.5 C 86.8333,128.167 86.8333,128.167 87.5,127.5 Z"/></g>
<g><path style="opacity:0.004" fill="#000000" d="M 88.5,129.5 C 87.8333,130.167 87.8333,130.167 88.5,129.5 Z"/></g>
<g><path style="opacity:0.004" fill="#000000" d="M 249.5,130.5 C 250.833,131.167 250.833,131.167 249.5,130.5 Z"/></g>
<g><path style="opacity:0.008" fill="#000000" d="M 89.5,131.5 C 88.8333,132.167 88.8333,132.167 89.5,131.5 Z"/></g>
<g><path style="opacity:0.004" fill="#000000" d="M 248.5,132.5 C 249.833,133.167 249.833,133.167 248.5,132.5 Z"/></g>
<g><path style="opacity:0.004" fill="#000000" d="M 90.5,133.5 C 89.8333,134.167 89.8333,134.167 90.5,133.5 Z"/></g>
<g><path style="opacity:0.004" fill="#000000" d="M 245.5,137.5 C 245.833,137.5 246.167,137.5 246.5,137.5C 246.315,138.17 245.981,138.17 245.5,137.5 Z"/></g>
<g><path style="opacity:0.004" fill="#000000" d="M 92.5,138.5 C 92.8333,138.5 93.1667,138.5 93.5,138.5C 93.3147,139.17 92.9813,139.17 92.5,138.5 Z"/></g>
<g><path style="opacity:0.004" fill="#000000" d="M 243.5,140.5 C 243.833,140.5 244.167,140.5 244.5,140.5C 244.315,141.17 243.981,141.17 243.5,140.5 Z"/></g>
<g><path style="opacity:0.004" fill="#000000" d="M 242.5,142.5 C 243.833,143.167 243.833,143.167 242.5,142.5 Z"/></g>
<g><path style="opacity:0.004" fill="#000000" d="M 241.5,143.5 C 241.833,143.5 242.167,143.5 242.5,143.5C 242.315,144.17 241.981,144.17 241.5,143.5 Z"/></g>
<g><path style="opacity:0.008" fill="#000000" d="M 239.5,146.5 C 239.833,146.5 240.167,146.5 240.5,146.5C 240.315,147.17 239.981,147.17 239.5,146.5 Z"/></g>
<g><path style="opacity:0.008" fill="#000000" d="M 238.5,147.5 C 238.833,147.5 239.167,147.5 239.5,147.5C 239.315,148.17 238.981,148.17 238.5,147.5 Z"/></g>
<g><path style="opacity:0.004" fill="#000000" d="M 237.5,148.5 C 237.833,148.5 238.167,148.5 238.5,148.5C 238.315,149.17 237.981,149.17 237.5,148.5 Z"/></g>
<g><path style="opacity:0.004" fill="#000000" d="M 236.5,149.5 C 236.833,149.5 237.167,149.5 237.5,149.5C 237.315,150.17 236.981,150.17 236.5,149.5 Z"/></g>
<g><path style="opacity:0.004" fill="#000000" d="M 234.5,152.5 C 234.833,152.5 235.167,152.5 235.5,152.5C 235.315,153.17 234.981,153.17 234.5,152.5 Z"/></g>
<g><path style="opacity:0.004" fill="#000000" d="M 233.5,153.5 C 233.833,153.5 234.167,153.5 234.5,153.5C 234.315,154.17 233.981,154.17 233.5,153.5 Z"/></g>
<g><path style="opacity:0.004" fill="#000000" d="M 232.5,154.5 C 232.833,154.5 233.167,154.5 233.5,154.5C 233.315,155.17 232.981,155.17 232.5,154.5 Z"/></g>
<g><path style="opacity:0.004" fill="#000000" d="M 231.5,155.5 C 231.833,155.5 232.167,155.5 232.5,155.5C 232.315,156.17 231.981,156.17 231.5,155.5 Z"/></g>
<g><path style="opacity:0.004" fill="#000000" d="M 230.5,156.5 C 230.833,156.5 231.167,156.5 231.5,156.5C 231.315,157.17 230.981,157.17 230.5,156.5 Z"/></g>
<g><path style="opacity:0.004" fill="#000000" d="M 229.5,157.5 C 229.833,157.5 230.167,157.5 230.5,157.5C 230.315,158.17 229.981,158.17 229.5,157.5 Z"/></g>
<g><path style="opacity:0.004" fill="#000000" d="M 226.5,159.5 C 226.833,159.5 227.167,159.5 227.5,159.5C 227.315,160.17 226.981,160.17 226.5,159.5 Z"/></g>
<g><path style="opacity:0.004" fill="#000000" d="M 225.5,160.5 C 225.833,160.5 226.167,160.5 226.5,160.5C 226.315,161.17 225.981,161.17 225.5,160.5 Z"/></g>
<g><path style="opacity:0.004" fill="#000000" d="M 113.5,161.5 C 112.833,162.167 112.833,162.167 113.5,161.5 Z"/></g>
<g><path style="opacity:0.004" fill="#000000" d="M 224.5,161.5 C 224.833,161.5 225.167,161.5 225.5,161.5C 225.315,162.17 224.981,162.17 224.5,161.5 Z"/></g>
<g><path style="opacity:0.004" fill="#000000" d="M 223.5,162.5 C 223.833,162.5 224.167,162.5 224.5,162.5C 224.315,163.17 223.981,163.17 223.5,162.5 Z"/></g>
<g><path style="opacity:0.008" fill="#000000" d="M 117.5,164.5 C 116.833,165.167 116.833,165.167 117.5,164.5 Z"/></g>
<g><path style="opacity:0.008" fill="#000000" d="M 220.5,164.5 C 220.833,164.5 221.167,164.5 221.5,164.5C 221.315,165.17 220.981,165.17 220.5,164.5 Z"/></g>
<g><path style="opacity:0.008" fill="#000000" d="M 120.5,166.5 C 119.833,167.167 119.833,167.167 120.5,166.5 Z"/></g>
<g><path style="opacity:0.008" fill="#000000" d="M 217.5,166.5 C 217.833,166.5 218.167,166.5 218.5,166.5C 218.315,167.17 217.981,167.17 217.5,166.5 Z"/></g>
<g><path style="opacity:0.004" fill="#000000" d="M 214.5,168.5 C 214.833,168.5 215.167,168.5 215.5,168.5C 215.315,169.17 214.981,169.17 214.5,168.5 Z"/></g>
<g><path style="opacity:0.004" fill="#000000" d="M 124.5,169.5 C 124.833,169.5 125.167,169.5 125.5,169.5C 125.315,170.17 124.981,170.17 124.5,169.5 Z"/></g>
<g><path style="opacity:0.004" fill="#000000" d="M 127.5,170.5 C 126.833,171.167 126.833,171.167 127.5,170.5 Z"/></g>
<g><path style="opacity:0.004" fill="#000000" d="M 129.5,171.5 C 128.833,172.167 128.833,172.167 129.5,171.5 Z"/></g>
<g><path style="opacity:0.004" fill="#000000" d="M 133.5,173.5 C 132.833,174.167 132.833,174.167 133.5,173.5 Z"/></g>
</svg>
